<svg width="22.000000" height="22.000000" viewBox="0 0 22 22" fill="none" xmlns="http://www.w3.org/2000/svg" xmlns:xlink="http://www.w3.org/1999/xlink">
	<desc>
			Created with Pixso.
	</desc>
	<defs>
		<clipPath id="clip5_131">
			<rect id="访问分析" width="17.000000" height="17.000000" transform="translate(3.000000 2.000000)" fill="white" fill-opacity="0"/>
		</clipPath>
	</defs>
	<rect id="访问分析" width="22.000000" height="22.000000" fill="#FFFFFF" fill-opacity="0"/>
	<g clip-path="url(#clip5_131)">
		<path id="path" d="M11.772 14.104C10.7605 14.104 9.9445 14.92 9.9445 15.9315C9.9445 16.943 10.7605 17.759 11.772 17.759C12.7835 17.759 13.5995 16.943 13.5995 15.9315C13.608 14.92 12.7835 14.104 11.772 14.104ZM11.772 16.8495C11.262 16.8495 10.854 16.4415 10.854 15.9315C10.854 15.4215 11.262 15.0135 11.772 15.0135C12.282 15.0135 12.69 15.4215 12.69 15.9315C12.69 16.4415 12.282 16.8495 11.772 16.8495ZM17.7305 14.104C16.719 14.104 15.903 14.92 15.903 15.9315C15.903 16.943 16.719 17.759 17.7305 17.759C18.742 17.759 19.558 16.943 19.558 15.9315C19.558 14.92 18.742 14.104 17.7305 14.104ZM17.7305 16.8495C17.2205 16.8495 16.8125 16.4415 16.8125 15.9315C16.8125 15.4215 17.2205 15.0135 17.7305 15.0135C18.2405 15.0135 18.6485 15.4215 18.6485 15.9315C18.64 16.4415 18.232 16.8495 17.7305 16.8495ZM5.822 14.104C4.8105 14.104 3.9945 14.92 3.9945 15.9315C3.9945 16.943 4.8105 17.759 5.822 17.759C6.8335 17.759 7.6495 16.943 7.6495 15.9315C7.6495 14.92 6.8335 14.104 5.822 14.104ZM5.822 16.8495C5.312 16.8495 4.904 16.4415 4.904 15.9315C4.904 15.4215 5.312 15.0135 5.822 15.0135C6.332 15.0135 6.74 15.43 6.74 15.9315C6.74 16.4415 6.3235 16.8495 5.822 16.8495ZM17.2715 9.06348L12.231 9.06348L12.231 7.71198C13.472 7.457 14.271 6.25 14.016 5.009C13.761 3.76797 12.554 2.96899 11.313 3.224C10.072 3.479 9.273 4.68597 9.528 5.927C9.715 6.828 10.412 7.52499 11.313 7.71198L11.313 9.06348L6.281 9.06348C5.771 9.06348 5.363 9.4715 5.363 9.98148L5.363 12.727C5.363 12.982 5.567 13.186 5.822 13.186C6.077 13.186 6.281 12.982 6.281 12.727L6.281 10.4405C6.281 10.1855 6.485 9.98148 6.74 9.98148L16.8125 9.98148C17.0675 9.98148 17.2715 10.1855 17.2715 10.4405L17.2715 12.727C17.2715 12.982 17.4755 13.186 17.7305 13.186C17.9855 13.186 18.1895 12.982 18.1895 12.727L18.1895 9.98148C18.1895 9.4715 17.773 9.06348 17.2715 9.06348ZM10.4035 5.46799C10.4035 4.71149 11.0155 4.091 11.7805 4.091C12.5455 4.091 13.1575 4.703 13.1575 5.46799C13.1575 6.22449 12.5455 6.845 11.7805 6.845C11.0155 6.845 10.4035 6.233 10.4035 5.46799Z" fill="#4D4D4D" fill-opacity="1.000000" fill-rule="nonzero"/>
		<path id="path" d="M7.6495 10.5255L15.7925 10.5255C16.294 10.5255 16.6935 10.9335 16.6935 11.4265L16.6935 12.3275C16.6935 12.829 16.2855 13.2285 15.7925 13.2285L7.6495 13.2285C7.148 13.2285 6.7485 12.8205 6.7485 12.3275L6.7485 11.435C6.7485 10.9335 7.148 10.5255 7.6495 10.5255Z" fill="#CAE4FF" fill-opacity="1.000000" fill-rule="nonzero"/>
	</g>
</svg>
