<svg xmlns="http://www.w3.org/2000/svg" xmlns:xlink="http://www.w3.org/1999/xlink" width="22" height="22" viewBox="0 0 22 22">
  <defs>
    <style>
      .cls-1 {
        fill: none;
      }

      .cls-2 {
        clip-path: url(#clip-path);
      }

      .cls-3 {
        fill: #a4c4fe;
      }

      .cls-4 {
        fill: #4d4d4d;
      }
    </style>
    <clipPath id="clip-path">
      <rect id="矩形_5" data-name="矩形 5" class="cls-1" width="22" height="22"/>
    </clipPath>
  </defs>
  <g id="组_992" data-name="组 992" transform="translate(-18 -158)">
    <g id="组_9" data-name="组 9" transform="translate(211 379.921)">
      <g id="组_8" data-name="组 8" transform="translate(-190 -217.921)">
        <g id="组_7" data-name="组 7" class="cls-2" transform="translate(0 0)">
          <path id="路径_3" data-name="路径 3" class="cls-3" d="M155.2-181.014s4.34-4.962,3.486-9.563a8.067,8.067,0,0,1,2.854,9.633l-2.684.562-3.788-.031Zm0,0" transform="translate(-146.684 191.242)"/>
        </g>
      </g>
      <path id="路径_4" data-name="路径 4" class="cls-3" d="M-124.375,35.58a1.661,1.661,0,0,0,1.661,1.661,1.661,1.661,0,0,0,1.661-1.661,1.661,1.661,0,0,0-1.661-1.661,1.661,1.661,0,0,0-1.661,1.661Zm0,0" transform="translate(-64.03 -245.72)"/>
      <path id="路径_5" data-name="路径 5" class="cls-3" d="M44.223,162.18a1.661,1.661,0,1,0,.831-1.439,1.661,1.661,0,0,0-.831,1.439Zm0,0" transform="translate(-228.531 -369.243)"/>
      <path id="路径_6" data-name="路径 6" class="cls-3" d="M134.207-181.515a1.661,1.661,0,0,0,.831,1.439,1.661,1.661,0,0,0,1.661,0,1.661,1.661,0,0,0,.831-1.439,1.661,1.661,0,0,0-.831-1.439,1.661,1.661,0,0,0-1.661,0,1.661,1.661,0,0,0-.831,1.439Zm0,0" transform="translate(-316.328 -33.901)"/>
      <path id="路径_7" data-name="路径 7" class="cls-4" d="M-129.507-181.226a1.831,1.831,0,0,1-1.692-1.13,1.831,1.831,0,0,1,.4-2,1.831,1.831,0,0,1,2-.4,1.831,1.831,0,0,1,1.13,1.692,1.833,1.833,0,0,1-1.831,1.831Zm0-2.62a.79.79,0,0,0-.79.79.79.79,0,0,0,.79.79.79.79,0,0,0,.79-.79.79.79,0,0,0-.79-.79Zm4.1,5.734a1.831,1.831,0,0,1-1.692-1.13,1.831,1.831,0,0,1,.4-2,1.831,1.831,0,0,1,2-.4,1.831,1.831,0,0,1,1.13,1.692,1.833,1.833,0,0,1-1.831,1.831Zm0-2.62a.79.79,0,0,0-.79.79.79.79,0,0,0,.79.79.79.79,0,0,0,.789-.79.79.79,0,0,0-.789-.79Zm2.187-5.771a1.831,1.831,0,0,1-1.692-1.13,1.831,1.831,0,0,1,.4-2,1.831,1.831,0,0,1,2-.4,1.831,1.831,0,0,1,1.13,1.692,1.833,1.833,0,0,1-1.831,1.831Zm0-2.62a.79.79,0,0,0-.73.487.79.79,0,0,0,.171.861.79.79,0,0,0,.861.171.79.79,0,0,0,.487-.73.79.79,0,0,0-.789-.789Zm0,0" transform="translate(-57.236 -27.082)"/>
      <path id="路径_8" data-name="路径 8" class="cls-4" d="M-182.646-202.373A7.362,7.362,0,0,1-190-209.727a7.362,7.362,0,0,1,7.354-7.354,7.362,7.362,0,0,1,7.355,7.354,7.362,7.362,0,0,1-7.355,7.354Zm0-13.666a6.32,6.32,0,0,0-6.313,6.312,6.32,6.32,0,0,0,6.313,6.313,6.32,6.32,0,0,0,6.312-6.313,6.32,6.32,0,0,0-6.312-6.312Zm0,0" transform="translate(0 -0.82)"/>
      <path id="路径_9" data-name="路径 9" class="cls-4" d="M-182.949-173.95a.517.517,0,0,1-.321-.111,3.836,3.836,0,0,1-1.186-1.445.524.524,0,0,1,.232-.7.518.518,0,0,1,.4-.03.518.518,0,0,1,.3.259,2.843,2.843,0,0,0,.9,1.1.521.521,0,0,1,.171.58.521.521,0,0,1-.492.351Zm4.419,2.476a.527.527,0,0,1-.159-.025c-.57-.182-1.992-.746-2.535-1.005a.521.521,0,0,1-.246-.694.521.521,0,0,1,.694-.246c.494.235,1.886.788,2.4.953a.521.521,0,0,1,.356.576.521.521,0,0,1-.514.441Zm3.867.6a13.518,13.518,0,0,1-1.371-.069.521.521,0,0,1-.455-.57.521.521,0,0,1,.562-.466,12.379,12.379,0,0,0,1.264.065,9.219,9.219,0,0,0,3.252-.521.521.521,0,0,1,.655.337.521.521,0,0,1-.337.655,10.265,10.265,0,0,1-3.57.57Zm-5.967-4.481a.521.521,0,0,1-.432-.232.521.521,0,0,1-.049-.488,10.3,10.3,0,0,1,4.688-5.263.521.521,0,0,1,.707.194.521.521,0,0,1-.187.708,9.205,9.205,0,0,0-4.246,4.759.52.52,0,0,1-.481.321Zm0,0" transform="translate(-5.355 -35.629)"/>
      <path id="路径_10" data-name="路径 10" class="cls-4" d="M-102.984,141.26h0a.52.52,0,0,1-.367-.155.52.52,0,0,1-.15-.37,20.748,20.748,0,0,1,.476-3.257.521.521,0,0,1,.614-.406.521.521,0,0,1,.406.614,20.048,20.048,0,0,0-.455,3.056.521.521,0,0,1-.521.518Zm0,0" transform="translate(-84.393 -346.355)"/>
      <path id="路径_11" data-name="路径 11" class="cls-4" d="M-73.6-125.242a.521.521,0,0,1-.51-.412.521.521,0,0,1,.3-.584,9.731,9.731,0,0,0,2.572-1.678.521.521,0,0,1,.728.065.521.521,0,0,1-.055.729,10.785,10.785,0,0,1-2.819,1.834.519.519,0,0,1-.213.045Zm4.175-3.235a.521.521,0,0,1-.472-.3.52.52,0,0,1,.076-.556,14.753,14.753,0,0,0,3.219-6.814.521.521,0,0,1,.317-.42.521.521,0,0,1,.521.07.521.521,0,0,1,.194.489,15.891,15.891,0,0,1-3.457,7.348.52.52,0,0,1-.4.184Zm0,0" transform="translate(-113.066 -79.337)"/>
      <path id="路径_12" data-name="路径 12" class="cls-4" d="M-58.951,146.4a.516.516,0,0,1-.251-.065c-.2-.11-.394-.222-.782-.457a14.918,14.918,0,0,1-1.607-1.134.52.52,0,0,1-.2-.489.521.521,0,0,1,.331-.409.521.521,0,0,1,.519.088,15.608,15.608,0,0,0,2.239,1.49.521.521,0,0,1,.252.586.521.521,0,0,1-.5.39Zm5.627,1.828h-.011a9.545,9.545,0,0,1-3.519-.8.521.521,0,0,1-.3-.672.521.521,0,0,1,.672-.3,8.581,8.581,0,0,0,3.172.737.521.521,0,0,1,.507.525.521.521,0,0,1-.517.516Zm0,0" transform="translate(-125.091 -352.943)"/>
    </g>
    <rect id="矩形_596" data-name="矩形 596" class="cls-1" width="22" height="22" transform="translate(18 158)"/>
  </g>
</svg>
