<svg width="22.000000" height="22.000000" viewBox="0 0 22 22" fill="none" xmlns="http://www.w3.org/2000/svg" xmlns:xlink="http://www.w3.org/1999/xlink">
	<desc>
			Created with Pixso.
	</desc>
	<defs>
		<clipPath id="clip8_25">
			<rect id="svg" width="17.000000" height="17.000000" transform="translate(2.000000 2.000000)" fill="white" fill-opacity="0"/>
		</clipPath>
	</defs>
	<rect id="访问分析" width="22.000000" height="22.000000" fill="#FFFFFF" fill-opacity="0"/>
	<g clip-path="url(#clip8_25)">
		<path id="path" d="M7.43823 9.68359L3.40991 9.68359C2.64453 9.68359 2 9.03906 2 8.27368L2 4.24536C2 3.47998 2.64453 2.83545 3.40991 2.83545L7.43823 2.83545C8.20361 2.83545 8.84814 3.47998 8.84814 4.24536L8.84814 8.27368C8.84814 9.03906 8.20361 9.68359 7.43823 9.68359ZM3.40991 4.04395C3.28906 4.04395 3.2085 4.12451 3.2085 4.24536L3.2085 8.27368C3.2085 8.39453 3.28906 8.4751 3.40991 8.4751L7.43823 8.4751C7.55908 8.4751 7.63965 8.39453 7.63965 8.27368L7.63965 4.24536C7.63965 4.12451 7.55908 4.04395 7.43823 4.04395L3.40991 4.04395Z" fill="#1091FF" fill-opacity="1.000000" fill-rule="nonzero"/>
		<path id="path" d="M13.8836 10.5295C13.521 10.5295 13.1585 10.4087 12.8765 10.1267L10.0567 7.2666C9.49271 6.70264 9.49271 5.81641 10.0567 5.25244L12.8765 2.43262C13.4405 1.86865 14.3267 1.86865 14.8907 2.43262L17.7105 5.25244C18.2745 5.81641 18.2745 6.70264 17.7105 7.2666L14.8907 10.0864C14.6087 10.3684 14.2461 10.5295 13.8836 10.5295ZM13.8836 3.198C13.8433 3.198 13.7627 3.198 13.7224 3.23828L10.8623 6.09839C10.7818 6.17896 10.7818 6.2998 10.8623 6.38037L13.7224 9.24048C13.803 9.32104 13.9239 9.32104 14.0044 9.24048L16.8646 6.38037C16.9451 6.2998 16.9451 6.17896 16.8646 6.09839L14.0044 3.23828C14.0044 3.23828 13.9239 3.198 13.8836 3.198Z" fill="#87C8FF" fill-opacity="1.000000" fill-rule="nonzero"/>
		<path id="path" d="M7.43823 18.1431L3.40991 18.1431C2.64453 18.1431 2 17.4985 2 16.7332L2 12.7048C2 11.9395 2.64453 11.2949 3.40991 11.2949L7.43823 11.2949C8.20361 11.2949 8.84814 11.9395 8.84814 12.7048L8.84814 16.7332C8.84814 17.4985 8.20361 18.1431 7.43823 18.1431ZM3.40991 12.5034C3.28906 12.5034 3.2085 12.584 3.2085 12.7048L3.2085 16.7332C3.2085 16.854 3.28906 16.9346 3.40991 16.9346L7.43823 16.9346C7.55908 16.9346 7.63965 16.854 7.63965 16.7332L7.63965 12.7048C7.63965 12.584 7.55908 12.5034 7.43823 12.5034L3.40991 12.5034ZM15.8977 18.1431L11.8694 18.1431C11.104 18.1431 10.4595 17.4985 10.4595 16.7332L10.4595 12.7048C10.4595 11.9395 11.104 11.2949 11.8694 11.2949L15.938 11.2949C16.7034 11.2949 17.3479 11.9395 17.3479 12.7048L17.3479 16.7734C17.3076 17.4985 16.6631 18.1431 15.8977 18.1431ZM11.8694 12.5034C11.7888 12.5034 11.668 12.584 11.668 12.7048L11.668 16.7734C11.668 16.854 11.7486 16.9749 11.8694 16.9749L15.938 16.9749C16.0186 16.9749 16.1394 16.8943 16.1394 16.7734L16.1394 12.7048C16.1394 12.6243 16.0589 12.5034 15.938 12.5034L11.8694 12.5034Z" fill="#1091FF" fill-opacity="1.000000" fill-rule="nonzero"/>
	</g>
</svg>
