<svg width="22.000000" height="22.000000" viewBox="0 0 22 22" fill="none" xmlns="http://www.w3.org/2000/svg" xmlns:xlink="http://www.w3.org/1999/xlink">
	<desc>
			Created with Pixso.
	</desc>
	<defs>
		<clipPath id="clip8_14">
			<rect id="svg" width="17.000000" height="17.000000" transform="translate(2.500000 2.500000)" fill="white" fill-opacity="0"/>
		</clipPath>
	</defs>
	<rect id="访问分析" width="22.000000" height="22.000000" fill="#FFFFFF" fill-opacity="0"/>
	<rect id="画板 1" width="17.000000" height="17.000000" transform="translate(2.500000 2.500000)" fill="#FFFFFF" fill-opacity="0"/>
	<g clip-path="url(#clip8_14)">
		<path id="path" d="M7.8772 19.4124L4.66263 19.4124C4.59177 19.4122 4.52106 19.4086 4.45056 19.4016C4.38004 19.3945 4.31006 19.384 4.24057 19.3701C4.17108 19.3562 4.10245 19.3389 4.03467 19.3182C3.96686 19.2975 3.90027 19.2736 3.83481 19.2464C3.76938 19.2192 3.70544 19.1889 3.64297 19.1554C3.58051 19.1219 3.51984 19.0854 3.46097 19.046C3.4021 19.0066 3.34528 18.9644 3.29053 18.9194C3.23581 18.8744 3.18341 18.8268 3.13333 18.7767C3.08325 18.7265 3.03577 18.674 2.99084 18.6192C2.94592 18.5644 2.90381 18.5075 2.86447 18.4485C2.82513 18.3896 2.78879 18.3289 2.7554 18.2664C2.72205 18.2039 2.6918 18.1398 2.66473 18.0743C2.63763 18.0089 2.6138 17.9423 2.59326 17.8744C2.57269 17.8066 2.55551 17.7379 2.54172 17.6684C2.52789 17.5989 2.51752 17.5289 2.51059 17.4584C2.50366 17.3878 2.50018 17.3171 2.50018 17.2463L2.50018 14.0265C2.50043 13.8795 2.51541 13.734 2.5451 13.5901C2.5704 13.4746 2.60504 13.3621 2.64899 13.2523C2.65741 13.2299 2.66104 13.2054 2.67026 13.1833C2.7149 13.0842 2.76678 12.989 2.8259 12.8977C2.84235 12.8713 2.85318 12.8412 2.87042 12.8155C2.91876 12.7485 2.97076 12.6844 3.02646 12.6234C3.06256 12.5812 3.09305 12.5339 3.13235 12.4946C3.17166 12.4553 3.21738 12.4256 3.25909 12.3899C3.32043 12.3327 3.38489 12.2792 3.45245 12.2295C3.47772 12.2126 3.50699 12.2018 3.53265 12.1857C3.62442 12.1264 3.72015 12.0744 3.81989 12.0297C3.84113 12.0209 3.86481 12.0173 3.88644 12.0089C3.99649 11.9642 4.10947 11.9291 4.2254 11.9034C4.36911 11.8739 4.51431 11.8592 4.66101 11.8593L7.87561 11.8593C8.01617 11.8596 8.15536 11.8736 8.29318 11.9014C8.35052 11.9126 8.40347 11.9335 8.45883 11.9491C8.5354 11.9683 8.61069 11.9918 8.68466 12.0193C8.75006 12.0458 8.81021 12.0811 8.87238 12.1135C8.93457 12.1461 8.98831 12.1709 9.04327 12.2066C9.10919 12.2515 9.17245 12.2999 9.233 12.3518C9.26669 12.3795 9.30438 12.4011 9.33649 12.432L9.33167 12.4344C9.44269 12.5352 9.54208 12.6464 9.62991 12.7679C9.71771 12.8894 9.79202 13.0187 9.85284 13.1557C9.91367 13.2927 9.95966 13.4346 9.99088 13.5812C10.0221 13.7279 10.0378 13.8762 10.0381 14.0261L10.0381 17.2463C10.0382 17.3171 10.0348 17.3879 10.028 17.4584C10.0212 17.5289 10.0109 17.599 9.99722 17.6685C9.98352 17.738 9.96643 17.8067 9.94595 17.8746C9.92551 17.9424 9.90176 18.0091 9.87473 18.0746C9.84772 18.1401 9.81757 18.2042 9.78424 18.2667C9.75092 18.3293 9.7146 18.39 9.67532 18.449C9.63602 18.508 9.59393 18.5649 9.54904 18.6198C9.50415 18.6746 9.4567 18.7271 9.40665 18.7772C9.3566 18.8274 9.3042 18.875 9.24948 18.92C9.19473 18.9651 9.13794 19.0073 9.07904 19.0467C9.02017 19.0862 8.9595 19.1226 8.89703 19.1561C8.83456 19.1895 8.7706 19.2198 8.70514 19.247C8.63968 19.2742 8.57306 19.2981 8.50528 19.3187C8.43747 19.3394 8.36884 19.3566 8.29932 19.3705C8.22983 19.3844 8.15982 19.3948 8.08929 19.4018C8.01877 19.4088 7.94809 19.4123 7.8772 19.4124ZM7.8772 10.3795L4.66263 10.3795C4.54648 10.3792 4.43109 10.3696 4.3165 10.3506C4.2019 10.3317 4.0896 10.3036 3.97952 10.2665C3.86948 10.2294 3.76309 10.1837 3.66043 10.1294C3.55774 10.0751 3.46011 10.0129 3.36746 9.94287C3.27484 9.87274 3.18848 9.79572 3.10831 9.71161C3.02814 9.62756 2.95523 9.53766 2.88962 9.44183C2.82401 9.34595 2.76648 9.24548 2.7171 9.14038C2.66772 9.03522 2.62711 8.92682 2.59525 8.81512L2.58722 8.81793C2.5784 8.78625 2.57397 8.75177 2.56638 8.72046C2.55634 8.68036 2.54633 8.63702 2.5387 8.59369C2.51505 8.46967 2.50247 8.34454 2.50098 8.21826L2.50098 4.99207C2.50098 4.84509 2.51569 4.69958 2.5451 4.5556C2.57047 4.44055 2.6051 4.32837 2.64899 4.21906C2.65741 4.1958 2.66104 4.17096 2.67026 4.14886C2.7149 4.04974 2.76678 3.95453 2.8259 3.86328C2.84235 3.83679 2.85318 3.8067 2.87042 3.78107C2.91876 3.71405 2.97076 3.64996 3.02646 3.58893C3.06256 3.54681 3.09305 3.49945 3.13235 3.46014C3.17166 3.42084 3.21738 3.39117 3.25909 3.35547C3.32043 3.29822 3.38489 3.24475 3.45245 3.19501C3.47772 3.17816 3.50699 3.16736 3.53265 3.15131C3.62442 3.09198 3.72015 3.03998 3.81989 2.99524C3.84274 2.98724 3.86639 2.98364 3.88806 2.97559C3.99811 2.93097 4.11108 2.89581 4.22702 2.87012C4.37045 2.8407 4.51566 2.82599 4.66263 2.82599L7.8772 2.82599C8.01218 2.82678 8.14587 2.84015 8.27832 2.86609C8.32126 2.87451 8.36136 2.88776 8.40469 2.89819C8.49084 2.91968 8.57535 2.94641 8.6582 2.97839C8.70432 2.99646 8.74844 3.01654 8.79297 3.03735C8.86673 3.0722 8.93826 3.11108 9.00757 3.15411C9.04767 3.18018 9.0914 3.20544 9.1315 3.23431C9.20023 3.28473 9.26575 3.33905 9.32806 3.39716C9.36017 3.42645 9.39426 3.45251 9.42435 3.4834C9.51099 3.57202 9.58945 3.66736 9.65979 3.76941C9.68225 3.80194 9.69989 3.83801 9.71915 3.8717C9.76608 3.9469 9.8082 4.02472 9.84552 4.10516C9.86716 4.15332 9.88562 4.20343 9.90207 4.2536C9.91852 4.30371 9.93976 4.341 9.953 4.38757L9.9458 4.39478C10.0057 4.5899 10.0371 4.78955 10.04 4.99365L10.04 8.21344C10.0401 8.28436 10.0367 8.3551 10.0298 8.42566C10.023 8.49628 10.0127 8.56635 9.9989 8.63586C9.98514 8.70544 9.96802 8.77417 9.94748 8.84204C9.92697 8.90991 9.90317 8.97662 9.8761 9.04218C9.84903 9.10773 9.81882 9.17175 9.78546 9.23431C9.75208 9.29688 9.71573 9.35767 9.67639 9.41663C9.63705 9.47565 9.59491 9.53253 9.54996 9.5874C9.50504 9.64227 9.45752 9.69476 9.40741 9.74493C9.35733 9.7951 9.3049 9.84271 9.25012 9.8877C9.19534 9.93274 9.13849 9.97491 9.07956 10.0143C9.02066 10.0538 8.95993 10.0902 8.89743 10.1237C8.83493 10.1571 8.77094 10.1874 8.70544 10.2145C8.63995 10.2417 8.5733 10.2656 8.50549 10.2862C8.43765 10.3068 8.36899 10.324 8.29944 10.3379C8.22992 10.3517 8.15991 10.3621 8.08936 10.3691C8.0188 10.376 7.94809 10.3795 7.8772 10.3795ZM13.7248 11.8604L16.9409 11.8604C17.071 11.862 17.2 11.8754 17.3276 11.9006C17.3645 11.9073 17.4002 11.9158 17.4363 11.9242C17.5307 11.9467 17.6231 11.9754 17.7135 12.0104C17.744 12.0221 17.7757 12.0313 17.8054 12.0446C17.9011 12.0864 17.9933 12.1348 18.0821 12.1898L18.0797 12.1938C18.1575 12.2419 18.2318 12.2949 18.3029 12.3525C18.3739 12.4101 18.441 12.472 18.5041 12.5381C18.5673 12.6042 18.626 12.6741 18.6803 12.7477C18.7346 12.8214 18.784 12.8981 18.8285 12.978C18.873 13.0579 18.9123 13.1403 18.9464 13.2252C18.9805 13.31 19.009 13.3967 19.0321 13.4852C19.0551 13.5737 19.0725 13.6633 19.0841 13.754C19.0958 13.8447 19.1017 13.9359 19.1018 14.0273L19.1018 17.2475C19.1019 17.3184 19.0985 17.3891 19.0917 17.4597C19.0848 17.5302 19.0745 17.6003 19.0608 17.6698C19.0471 17.7393 19.0299 17.808 19.0095 17.8759C18.989 17.9438 18.9652 18.0104 18.9381 18.076C18.9111 18.1415 18.8809 18.2055 18.8475 18.2681C18.8142 18.3306 18.7779 18.3914 18.7386 18.4504C18.6992 18.5094 18.6571 18.5663 18.6122 18.6212C18.5673 18.676 18.5198 18.7285 18.4697 18.7786C18.4196 18.8288 18.3672 18.8764 18.3125 18.9214C18.2577 18.9664 18.2009 19.0087 18.142 19.0481C18.083 19.0875 18.0223 19.124 17.9599 19.1574C17.8974 19.1909 17.8334 19.2212 17.7679 19.2484C17.7025 19.2755 17.6358 19.2994 17.568 19.3201C17.5002 19.3406 17.4315 19.3579 17.362 19.3718C17.2924 19.3856 17.2224 19.3961 17.1519 19.403C17.0813 19.41 17.0106 19.4135 16.9397 19.4136L13.7248 19.4136C13.6257 19.4133 13.527 19.4062 13.4289 19.3923C13.3308 19.3784 13.2341 19.3578 13.1389 19.3306C13.0436 19.3034 12.9506 19.2698 12.86 19.2297C12.7693 19.1896 12.6819 19.1436 12.5976 19.0914C12.5133 19.0392 12.433 18.9816 12.3568 18.9184C12.2804 18.8552 12.2088 18.787 12.1419 18.7139C12.075 18.6408 12.0135 18.5635 11.9572 18.4819C11.901 18.4003 11.8507 18.3152 11.8062 18.2266L11.8006 18.2299C11.7889 18.207 11.7805 18.1821 11.7693 18.1588C11.75 18.1187 11.7316 18.0786 11.7151 18.0349C11.6763 17.9359 11.6449 17.8345 11.6209 17.7308C11.6121 17.6907 11.606 17.6526 11.5992 17.6129C11.5803 17.5068 11.5695 17.3998 11.5667 17.292C11.5667 17.2772 11.5623 17.2635 11.5623 17.2487L11.5623 14.0265C11.5623 13.9556 11.5658 13.8849 11.5727 13.8144C11.5797 13.7439 11.59 13.6739 11.6039 13.6044C11.6176 13.5349 11.6348 13.4662 11.6554 13.3984C11.6759 13.3306 11.6997 13.2639 11.7268 13.1984C11.7539 13.1329 11.7842 13.0689 11.8175 13.0064C11.8509 12.9439 11.8873 12.8832 11.9266 12.8242C11.9659 12.7653 12.0081 12.7084 12.053 12.6536C12.0979 12.5988 12.1454 12.5463 12.1955 12.4962C12.2455 12.446 12.2979 12.3984 12.3527 12.3534C12.4074 12.3084 12.4642 12.2662 12.5231 12.2267C12.582 12.1873 12.6426 12.1508 12.7051 12.1174C12.7675 12.0839 12.8315 12.0535 12.8969 12.0264C12.9624 11.9991 13.029 11.9752 13.0968 11.9545C13.1646 11.9339 13.2332 11.9166 13.3027 11.9026C13.3722 11.8887 13.4422 11.8782 13.5127 11.8712C13.5832 11.8641 13.6539 11.8605 13.7248 11.8604Z" fill="#1296DB" fill-opacity="1.000000" fill-rule="nonzero"/>
		<path id="path" d="M18.7937 8.13483L16.8627 10.0695C16.8127 10.1196 16.7603 10.1671 16.7055 10.2121C16.6508 10.2571 16.5939 10.2993 16.535 10.3387C16.4761 10.3781 16.4155 10.4145 16.353 10.4479C16.2905 10.4813 16.2266 10.5116 16.1611 10.5388C16.0956 10.5659 16.029 10.5897 15.9612 10.6104C15.8934 10.6309 15.8248 10.6481 15.7553 10.6619C15.6858 10.6758 15.6158 10.6862 15.5453 10.6931C15.4748 10.7001 15.4041 10.7036 15.3333 10.7036C15.2624 10.7036 15.1917 10.7001 15.1212 10.6931C15.0507 10.6862 14.9807 10.6758 14.9112 10.6619C14.8417 10.6481 14.7731 10.6309 14.7053 10.6104C14.6375 10.5897 14.5709 10.5659 14.5054 10.5388C14.4399 10.5116 14.376 10.4813 14.3135 10.4479C14.251 10.4145 14.1903 10.3781 14.1315 10.3387C14.0726 10.2993 14.0157 10.2571 13.961 10.2121C13.9062 10.1671 13.8539 10.1196 13.8038 10.0695L11.8728 8.13483C11.8227 8.08459 11.7752 8.03204 11.7303 7.97717C11.6854 7.92224 11.6432 7.8653 11.6039 7.80627C11.5645 7.74725 11.5282 7.68646 11.4948 7.6239C11.4614 7.56128 11.4312 7.49719 11.4041 7.43164C11.377 7.36609 11.3532 7.29938 11.3326 7.23151C11.3121 7.16364 11.2949 7.09485 11.2811 7.02533C11.2673 6.95575 11.2569 6.88562 11.25 6.81506C11.243 6.74445 11.2396 6.67371 11.2396 6.60278C11.2396 6.53186 11.243 6.46106 11.25 6.3905C11.2569 6.31989 11.2673 6.24982 11.2811 6.18024C11.2949 6.11066 11.3121 6.04193 11.3326 5.97406C11.3532 5.90613 11.377 5.83942 11.4041 5.77386C11.4312 5.70831 11.4614 5.64423 11.4948 5.58167C11.5282 5.5191 11.5645 5.45825 11.6039 5.39923C11.6432 5.34021 11.6854 5.28326 11.7303 5.22839C11.7752 5.17346 11.8227 5.12091 11.8728 5.07068L13.8034 3.13611C13.905 3.03473 14.0155 2.94434 14.1351 2.86493C14.1752 2.83765 14.2209 2.81958 14.2635 2.7951C14.3403 2.74829 14.4197 2.70648 14.5017 2.66956C14.5563 2.64673 14.6128 2.63428 14.6686 2.61621C14.7415 2.59021 14.8156 2.56812 14.8908 2.55005C14.9534 2.5368 15.0172 2.53357 15.0805 2.526C15.1512 2.51794 15.2209 2.50714 15.2919 2.50549C15.3629 2.50391 15.4271 2.51196 15.4949 2.51715C15.5627 2.52234 15.6273 2.52515 15.6931 2.53601C15.7589 2.54681 15.8318 2.56812 15.9008 2.58698C15.9618 2.60461 16.0228 2.61945 16.0829 2.64191C16.1528 2.66937 16.2209 2.70038 16.2875 2.73499C16.3429 2.76263 16.3982 2.7887 16.452 2.82159C16.5188 2.86383 16.5831 2.90955 16.6449 2.9588C16.677 2.98328 16.7119 3.00171 16.7428 3.0282L16.74 3.03662C16.7801 3.07111 16.8242 3.09839 16.8623 3.1369L18.7933 5.07111C18.8434 5.12134 18.8909 5.17389 18.9358 5.22876C18.9807 5.28363 19.0229 5.34058 19.0622 5.3996C19.1015 5.45862 19.1379 5.51941 19.1712 5.58197C19.2046 5.64453 19.2348 5.70862 19.2619 5.77417C19.289 5.83966 19.3129 5.90637 19.3334 5.97424C19.354 6.04218 19.3712 6.11084 19.3849 6.18042C19.3988 6.25 19.4091 6.32007 19.4161 6.39062C19.423 6.46124 19.4265 6.53198 19.4265 6.60291C19.4265 6.67383 19.4231 6.74457 19.4162 6.81512C19.4092 6.88574 19.3989 6.95581 19.3851 7.02533C19.3713 7.09491 19.3541 7.16364 19.3336 7.23151C19.313 7.29938 19.2892 7.36615 19.2621 7.43164C19.2351 7.49719 19.2049 7.56128 19.1715 7.62384C19.1382 7.68646 19.1018 7.74725 19.0625 7.80627C19.0232 7.8653 18.981 7.92224 18.9362 7.97717C18.8913 8.03204 18.8438 8.08459 18.7937 8.13483Z" fill="#1296DB" fill-opacity="1.000000" fill-rule="nonzero"/>
	</g>
</svg>
