<svg width="22.000000" height="22.000000" viewBox="0 0 22 22" fill="none" xmlns="http://www.w3.org/2000/svg" xmlns:xlink="http://www.w3.org/1999/xlink">
	<desc>
			Created with Pixso.
	</desc>
	<defs>
		<clipPath id="clip5_117">
			<rect id="系统设置" width="17.500000" height="17.500000" transform="translate(3.000000 2.000000)" fill="white" fill-opacity="0"/>
		</clipPath>
	</defs>
	<rect id="系统设置" width="22.000000" height="22.000000" fill="#FFFFFF" fill-opacity="0"/>
	<g clip-path="url(#clip5_117)">
		<path id="path" d="M8.36374 11.1175C8.36374 11.2227 8.3689 11.3276 8.37921 11.4323C8.3895 11.5369 8.40494 11.6408 8.42545 11.744C8.44595 11.8471 8.4715 11.949 8.50201 12.0497C8.53253 12.1503 8.56793 12.2492 8.60818 12.3464C8.64844 12.4436 8.69333 12.5385 8.74292 12.6313C8.79251 12.724 8.8465 12.8141 8.90494 12.9016C8.96335 12.989 9.02594 13.0734 9.09265 13.1547C9.15939 13.236 9.22992 13.3138 9.30429 13.3882C9.37866 13.4626 9.45648 13.5331 9.53778 13.5998C9.61908 13.6666 9.70346 13.7291 9.79092 13.7876C9.87836 13.846 9.96848 13.9 10.0612 13.9496C10.154 13.9991 10.2489 14.0441 10.3461 14.0843C10.4433 14.1245 10.5422 14.1599 10.6428 14.1905C10.7435 14.221 10.8454 14.2465 10.9485 14.2671C11.0517 14.2876 11.1556 14.303 11.2602 14.3133C11.3649 14.3236 11.4698 14.3288 11.575 14.3288C11.6802 14.3288 11.7851 14.3236 11.8897 14.3133C11.9944 14.303 12.0983 14.2876 12.2015 14.2671C12.3046 14.2465 12.4065 14.221 12.5072 14.1905C12.6078 14.1599 12.7067 14.1245 12.8039 14.0843C12.9011 14.0441 12.996 13.9991 13.0888 13.9496C13.1815 13.9 13.2716 13.846 13.3591 13.7876C13.4465 13.7291 13.5309 13.6666 13.6122 13.5998C13.6935 13.5331 13.7713 13.4626 13.8457 13.3882C13.92 13.3138 13.9906 13.236 14.0573 13.1547C14.1241 13.0734 14.1866 12.989 14.2451 12.9016C14.3035 12.8141 14.3575 12.724 14.4071 12.6313C14.4566 12.5385 14.5016 12.4436 14.5418 12.3464C14.582 12.2492 14.6174 12.1503 14.6479 12.0497C14.6785 11.949 14.704 11.8471 14.7245 11.744C14.7451 11.6408 14.7605 11.5369 14.7708 11.4323C14.7811 11.3276 14.7863 11.2227 14.7863 11.1175C14.7863 11.0123 14.7811 10.9074 14.7708 10.8027C14.7605 10.6981 14.7451 10.5942 14.7245 10.491C14.704 10.3879 14.6785 10.286 14.6479 10.1853C14.6174 10.0847 14.582 9.98578 14.5418 9.88861C14.5016 9.79144 14.4566 9.69647 14.4071 9.60373C14.3575 9.51099 14.3035 9.42087 14.2451 9.33344C14.1866 9.24597 14.1241 9.16159 14.0573 9.08029C13.9906 8.99899 13.92 8.92117 13.8457 8.8468C13.7713 8.77243 13.6935 8.7019 13.6122 8.63516C13.5309 8.56845 13.4465 8.50586 13.3591 8.44745C13.2716 8.38901 13.1815 8.33502 13.0888 8.28543C12.996 8.23584 12.9011 8.19095 12.8039 8.1507C12.7067 8.11044 12.6078 8.07504 12.5072 8.04453C12.4065 8.01401 12.3046 7.98846 12.2015 7.96796C12.0983 7.94745 11.9944 7.93201 11.8897 7.92172C11.7851 7.91141 11.6802 7.90625 11.575 7.90625C11.4698 7.90625 11.3649 7.91141 11.2602 7.92172C11.1556 7.93201 11.0517 7.94745 10.9485 7.96796C10.8454 7.98846 10.7435 8.01401 10.6428 8.04453C10.5422 8.07504 10.4433 8.11044 10.3461 8.1507C10.2489 8.19095 10.154 8.23584 10.0612 8.28543C9.96848 8.33502 9.87836 8.38901 9.79092 8.44745C9.70346 8.50586 9.61908 8.56845 9.53778 8.63516C9.45648 8.7019 9.37866 8.77243 9.30429 8.8468C9.22992 8.92117 9.15939 8.99899 9.09265 9.08029C9.02594 9.16159 8.96338 9.24597 8.90494 9.33344C8.8465 9.42087 8.79251 9.51099 8.74292 9.60373C8.69333 9.69647 8.64844 9.79144 8.60818 9.88861C8.56793 9.98578 8.53253 10.0847 8.50201 10.1853C8.4715 10.286 8.44595 10.3879 8.42545 10.491C8.40494 10.5942 8.38953 10.6981 8.37921 10.8027C8.3689 10.9074 8.36374 11.0123 8.36374 11.1175Z" fill="#CAE4FF" fill-opacity="1.000000" fill-rule="nonzero"/>
		<path id="path" d="M17.8258 9.35229L16.9858 9.05478C16.8721 9.01978 16.8108 8.88852 16.8458 8.77478C16.8458 8.76602 16.8546 8.75729 16.8546 8.75729L17.2308 7.96103C17.6683 7.02478 17.2658 5.90479 16.3296 5.46729C15.8221 5.23102 15.2446 5.23102 14.7371 5.46729L13.9408 5.84354C13.8796 5.86978 13.8183 5.86978 13.7571 5.84354C13.7046 5.81729 13.6608 5.77353 13.6346 5.71228L13.3371 4.87228C12.9871 3.90103 11.9108 3.39352 10.9396 3.74353C10.4146 3.93604 9.9946 4.34729 9.81085 4.87228L9.51334 5.71228C9.49585 5.77353 9.45209 5.81729 9.39084 5.84354C9.32959 5.86978 9.26834 5.86978 9.20709 5.84354L8.41083 5.46729C7.47458 5.02979 6.35458 5.43228 5.91708 6.36853C5.68085 6.87604 5.68085 7.45352 5.91708 7.96103L6.29333 8.75729C6.34583 8.87103 6.29333 8.99353 6.18832 9.04602C6.1796 9.04602 6.17084 9.05478 6.17084 9.05478L5.33084 9.35229C4.35959 9.70227 3.85208 10.7785 4.20209 11.7498C4.39459 12.2748 4.80585 12.6948 5.33084 12.8785L6.17084 13.176C6.28458 13.211 6.34583 13.3423 6.31085 13.456C6.31085 13.4648 6.30209 13.4735 6.30209 13.4735L5.92584 14.2698C5.48834 15.206 5.89084 16.326 6.82709 16.7635C7.33459 16.9998 7.91208 16.9998 8.41959 16.7635L9.21585 16.3873C9.2771 16.361 9.33835 16.361 9.3996 16.3873C9.45209 16.4135 9.49585 16.4573 9.52209 16.5185L9.81958 17.3585C10.1696 18.3298 11.2458 18.8373 12.2171 18.4873C12.7421 18.2948 13.1621 17.8835 13.3458 17.3585L13.6433 16.5273C13.6871 16.4135 13.8096 16.3523 13.9233 16.3873C13.9321 16.3873 13.9321 16.3873 13.9408 16.396L14.7371 16.7723C15.6733 17.2098 16.7933 16.8073 17.2308 15.871C17.4671 15.3635 17.4671 14.786 17.2308 14.2785L16.8546 13.4823C16.8021 13.3685 16.8546 13.246 16.9596 13.1935C16.9683 13.1935 16.9771 13.1848 16.9771 13.1848L17.8171 12.8873C18.7883 12.5373 19.2958 11.461 18.9458 10.4898C18.7533 9.96478 18.3421 9.54477 17.8171 9.36102L17.8171 9.35226L17.8258 9.35229ZM17.4846 11.951L16.6446 12.2485C16.0146 12.476 15.6821 13.176 15.9096 13.806C15.9271 13.841 15.9359 13.876 15.9533 13.9198L16.3296 14.716C16.5396 15.1535 16.3471 15.6785 15.9096 15.8798C15.8516 15.9079 15.7913 15.9291 15.7285 15.9435C15.6657 15.9579 15.6021 15.9651 15.5377 15.9651C15.4733 15.9651 15.4097 15.9579 15.347 15.9435C15.2842 15.9291 15.2238 15.9079 15.1658 15.8798L14.3696 15.5035C13.7658 15.2148 13.0396 15.4773 12.7509 16.081C12.7333 16.116 12.7159 16.151 12.7071 16.1948L12.4096 17.026C12.2433 17.481 11.7358 17.7085 11.2809 17.5423C11.0446 17.4548 10.8521 17.2623 10.7646 17.026L10.4671 16.186C10.2396 15.556 9.53958 15.2235 8.90958 15.451C8.8746 15.4685 8.8396 15.4773 8.79584 15.4948L7.9996 15.871C7.5621 16.0723 7.03708 15.8798 6.83585 15.4423C6.73083 15.2148 6.73083 14.9435 6.83585 14.716L7.2121 13.9198C7.50085 13.316 7.23834 12.5898 6.63458 12.301C6.59958 12.2835 6.56458 12.266 6.52084 12.2573L5.68085 11.9598C5.22583 11.7935 4.99835 11.286 5.16458 10.831C5.25208 10.5948 5.44458 10.4023 5.68085 10.3148L6.52084 10.0173C7.15085 9.78979 7.48334 9.09854 7.26459 8.45978C7.2471 8.41605 7.22958 8.38104 7.2121 8.33728L6.83585 7.54105C6.62585 7.10355 6.81833 6.57852 7.25583 6.37729C7.4921 6.26352 7.76334 6.26352 7.9996 6.37729L8.79584 6.75354C9.3996 7.0423 10.1259 6.77979 10.4146 6.17603C10.4321 6.14102 10.4496 6.10602 10.4583 6.06229L10.7558 5.22229C10.9221 4.76727 11.4296 4.53979 11.8846 4.70602C12.1208 4.79352 12.3134 4.98602 12.4008 5.22229L12.6983 6.06229C12.9258 6.69229 13.6259 7.02478 14.2558 6.79727C14.2908 6.77979 14.3258 6.77103 14.3696 6.75354L15.1658 6.37729C15.6033 6.1673 16.1283 6.34229 16.3383 6.77979C16.4521 7.02478 16.4608 7.30478 16.3383 7.54105L15.9621 8.33728C15.6733 8.94104 15.9359 9.6673 16.5396 9.95602C16.5746 9.97354 16.6096 9.99103 16.6533 9.99979L17.4933 10.2973C17.9483 10.4635 18.1758 10.971 18.0096 11.426C17.9221 11.6623 17.7296 11.8548 17.4933 11.9423L17.4846 11.951Z" fill="#4D4D4D" fill-opacity="1.000000" fill-rule="nonzero"/>
		<path id="path" d="M11.5521 8.86227C10.3358 8.86227 9.35583 9.84229 9.35583 11.0585C9.35583 12.2748 10.3358 13.2548 11.5521 13.2548C12.7683 13.2548 13.7483 12.2748 13.7483 11.0585C13.7483 9.84229 12.7683 8.86227 11.5521 8.86227ZM11.5521 12.3973C10.8083 12.3973 10.2046 11.7935 10.2046 11.0498C10.2046 10.306 10.8083 9.70227 11.5521 9.70227C12.2958 9.70227 12.8996 10.306 12.8996 11.0498C12.8996 11.8023 12.2958 12.3973 11.5521 12.3973Z" fill="#4D4D4D" fill-opacity="1.000000" fill-rule="nonzero"/>
	</g>
</svg>
