<svg width="22.000000" height="22.000000" viewBox="0 0 22 22" fill="none" xmlns="http://www.w3.org/2000/svg" xmlns:xlink="http://www.w3.org/1999/xlink">
	<desc>
			Created with Pixso.
	</desc>
	<defs>
		<clipPath id="clip5_127">
			<rect id="趋势分析" width="17.000000" height="17.000000" transform="translate(3.000000 2.000000)" fill="white" fill-opacity="0"/>
		</clipPath>
	</defs>
	<rect id="趋势分析" width="22.000000" height="22.000000" fill="#FFFFFF" fill-opacity="0"/>
	<g clip-path="url(#clip5_127)">
		<path id="path" d="M7.48027 5.04547L16.7113 5.04547C17.3913 5.04547 17.9438 5.59796 17.9438 6.27798L17.9438 14.2765C17.9438 14.9565 17.3913 15.509 16.7113 15.509L7.48027 15.509C6.80028 15.509 6.24777 14.9565 6.24777 14.2765L6.24777 6.27798C6.24777 5.59796 6.80028 5.04547 7.48027 5.04547Z" fill="#CAE4FF" fill-opacity="1.000000" fill-rule="nonzero"/>
		<path id="path" d="M18.9893 17.7445L5.38927 17.7445C5.23627 17.7445 5.09177 17.7105 4.95576 17.651C4.47127 17.396 4.11426 16.937 3.99525 16.4015C3.92726 16.1635 3.89326 15.917 3.88477 15.679C3.81676 11.701 3.88477 7.72296 3.88477 3.75348C3.88477 3.68546 3.89326 3.61746 3.91026 3.54947C3.93576 3.40497 4.02077 3.27747 4.13126 3.19247C4.17377 3.16696 4.22476 3.14148 4.27576 3.13297L4.37776 3.13297C4.42876 3.14148 4.47125 3.16696 4.52226 3.19247C4.63277 3.27747 4.71776 3.40497 4.74326 3.54947C4.75175 3.59198 4.76025 3.64297 4.76025 3.68546C4.91325 7.65497 4.70076 11.6415 4.76875 15.6195C4.78577 16.0955 5.05775 16.478 5.38927 16.512C9.92825 16.6735 14.4758 16.512 19.0148 16.512C19.1423 16.5205 19.2528 16.5885 19.3208 16.699C19.4143 16.852 19.4568 17.0305 19.4398 17.209C19.4313 17.379 19.3633 17.5405 19.2443 17.668C19.1593 17.7104 19.0743 17.7445 18.9893 17.7445ZM17.6548 3.82147C17.7313 3.83847 17.7993 3.87247 17.8503 3.93198C18.0373 4.16147 18.0883 4.47595 17.9778 4.74796C17.9438 4.84998 17.8758 4.93497 17.7908 4.99448C16.9748 5.51297 16.1078 5.87848 15.2833 6.37997C14.8923 6.65198 14.6033 7.04297 14.4503 7.50195C14.1188 8.43695 13.8383 9.41446 13.5153 10.3665C13.3878 10.7405 13.2093 11.089 12.9798 11.4035C12.5378 12.109 11.7388 12.5 10.9058 12.415C10.6168 12.364 10.3448 12.262 10.0983 12.1005C9.95377 12.007 9.81776 11.905 9.67326 11.8115C8.84026 11.31 7.87976 11.8115 7.45476 12.9505C7.29326 13.4095 7.14026 13.9195 6.99576 14.37C6.97026 14.455 6.91927 14.54 6.86826 14.608C6.78326 14.71 6.63876 14.7525 6.50276 14.71C6.35826 14.6505 6.25626 14.5315 6.21376 14.3784C6.16277 14.2255 6.15427 14.064 6.19676 13.9025C6.33276 13.4095 6.50276 12.9335 6.66426 12.449C6.78326 12.1005 6.94476 11.769 7.14876 11.4715C7.57376 10.749 8.37276 10.324 9.20576 10.375C9.52026 10.4174 9.81776 10.528 10.0813 10.698C10.2258 10.7915 10.3618 10.8935 10.5063 10.987C10.6678 11.089 10.8548 11.1485 11.0503 11.174C11.5688 11.208 12.0618 10.9615 12.3593 10.5365C12.5123 10.3325 12.6398 10.103 12.7248 9.85648C13.0648 8.92145 13.3368 7.94397 13.6598 6.99197C13.8383 6.43945 14.1528 5.94647 14.5608 5.53845C14.6968 5.41095 14.8413 5.30048 15.0028 5.20697C15.8188 4.73947 16.6348 4.30597 17.4508 3.85547C17.4933 3.83847 17.5273 3.82147 17.5698 3.81296C17.5953 3.82147 17.6208 3.82147 17.6548 3.82147Z" fill="#4D4D4D" fill-opacity="1.000000" fill-rule="nonzero"/>
	</g>
</svg>
