<svg xmlns="http://www.w3.org/2000/svg" width="22" height="22" viewBox="0 0 22 22">
  <defs>
    <style>
      .cls-1 {
        fill: none;
      }

      .cls-2 {
        fill: #a4c4fe;
      }

      .cls-3 {
        fill: #4d4d4d;
      }
    </style>
  </defs>
  <g id="组_988" data-name="组 988" transform="translate(-18 -527)">
    <rect id="矩形_10" data-name="矩形 10" class="cls-1" width="22" height="22" transform="translate(18 527)"/>
    <g id="组_605" data-name="组 605" transform="translate(174 751.961)">
      <path id="路径_28" data-name="路径 28" class="cls-2" d="M-60.961-190.425a3.079,3.079,0,0,0,3.079,3.079,3.079,3.079,0,0,0,3.079-3.079,3.079,3.079,0,0,0-3.079-3.079,3.079,3.079,0,0,0-3.079,3.079Zm0,0" transform="translate(-87.404 -25.572)"/>
      <path id="路径_29" data-name="路径 29" class="cls-3" d="M-141.688-211.241A5.959,5.959,0,0,0-139.321-216a5.972,5.972,0,0,0-5.965-5.965A5.972,5.972,0,0,0-151.251-216a5.959,5.959,0,0,0,2.367,4.755A5.73,5.73,0,0,0-153-205.751a.72.72,0,0,0,.72.72.72.72,0,0,0,.72-.72,4.285,4.285,0,0,1,4.28-4.28h3.99a4.285,4.285,0,0,1,4.28,4.28.72.72,0,0,0,.719.72.72.72,0,0,0,.719-.72A5.729,5.729,0,0,0-141.688-211.241ZM-149.811-216a4.53,4.53,0,0,1,4.525-4.526A4.532,4.532,0,0,1-140.759-216a4.531,4.531,0,0,1-4.526,4.526A4.53,4.53,0,0,1-149.811-216Z" transform="translate(0 0)"/>
    </g>
  </g>
</svg>
