<svg width="22.000000" height="22.000000" viewBox="0 0 22 22" fill="none" xmlns="http://www.w3.org/2000/svg" xmlns:xlink="http://www.w3.org/1999/xlink">
	<desc>
			Created with Pixso.
	</desc>
	<defs>
		<clipPath id="clip5_123">
			<rect id="用户分析" width="18.014706" height="17.500000" transform="translate(2.000000 2.000000)" fill="white" fill-opacity="0"/>
		</clipPath>
	</defs>
	<rect id="用户分析" width="22.000000" height="22.000000" fill="#FFFFFF" fill-opacity="0"/>
	<g clip-path="url(#clip5_123)">
		<path id="path" d="M12.0252 11.0562C12.0252 11.1296 12.0289 11.2028 12.0363 11.2758C12.0437 11.3488 12.0547 11.4213 12.0695 11.4933C12.0842 11.5652 12.1025 11.6363 12.1245 11.7065C12.1464 11.7767 12.1718 11.8457 12.2007 11.9135C12.2296 11.9812 12.2618 12.0475 12.2975 12.1122C12.333 12.1769 12.3718 12.2397 12.4138 12.3007C12.4557 12.3617 12.5007 12.4206 12.5486 12.4773C12.5965 12.534 12.6472 12.5883 12.7006 12.6402C12.754 12.692 12.8098 12.7413 12.8682 12.7878C12.9266 12.8344 12.9872 12.878 13.05 12.9187C13.1128 12.9595 13.1775 12.9972 13.2441 13.0318C13.3107 13.0663 13.3789 13.0977 13.4486 13.1257C13.5184 13.1538 13.5894 13.1785 13.6617 13.1998C13.734 13.2211 13.8071 13.2389 13.8812 13.2532C13.9553 13.2675 14.0299 13.2783 14.105 13.2855C14.1802 13.2927 14.2556 13.2963 14.3311 13.2963C14.4066 13.2963 14.4819 13.2927 14.5571 13.2855C14.6322 13.2783 14.7068 13.2675 14.7809 13.2532C14.855 13.2389 14.9282 13.2211 15.0004 13.1998C15.0727 13.1785 15.1437 13.1538 15.2135 13.1257C15.2833 13.0977 15.3514 13.0663 15.4181 13.0318C15.4846 12.9972 15.5493 12.9595 15.6122 12.9188C15.6749 12.878 15.7355 12.8344 15.7939 12.7878C15.8523 12.7413 15.9082 12.692 15.9616 12.6402C16.015 12.5883 16.0656 12.534 16.1135 12.4773C16.1614 12.4206 16.2064 12.3617 16.2483 12.3007C16.2903 12.2397 16.3291 12.1769 16.3647 12.1122C16.4003 12.0475 16.4325 11.9812 16.4614 11.9135C16.4903 11.8457 16.5157 11.7767 16.5377 11.7065C16.5596 11.6363 16.5779 11.5652 16.5926 11.4933C16.6074 11.4213 16.6184 11.3488 16.6258 11.2758C16.6332 11.2028 16.6369 11.1296 16.6369 11.0562C16.6369 10.9829 16.6332 10.9097 16.6258 10.8367C16.6184 10.7637 16.6074 10.6912 16.5926 10.6193C16.5779 10.5473 16.5596 10.4762 16.5377 10.406C16.5157 10.3358 16.4903 10.2668 16.4614 10.199C16.4325 10.1313 16.4003 10.065 16.3647 10.0003C16.3291 9.93564 16.2903 9.87277 16.2483 9.81177C16.2064 9.75076 16.1614 9.69193 16.1135 9.63522C16.0656 9.57849 16.015 9.5242 15.9616 9.47232C15.9082 9.42047 15.8523 9.37125 15.7939 9.32471C15.7355 9.27817 15.6749 9.23453 15.6122 9.19376C15.5493 9.15302 15.4846 9.11533 15.4181 9.08075C15.3514 9.04617 15.2833 9.01483 15.2135 8.98676C15.1437 8.95868 15.0727 8.93399 15.0004 8.91272C14.9282 8.89142 14.855 8.8736 14.7809 8.85928C14.7068 8.84497 14.6322 8.83423 14.5571 8.82703C14.4819 8.81985 14.4066 8.81625 14.3311 8.81625C14.2556 8.81625 14.1802 8.81985 14.105 8.82703C14.0299 8.83423 13.9553 8.84497 13.8812 8.85928C13.8071 8.8736 13.734 8.89142 13.6617 8.91272C13.5894 8.93399 13.5184 8.95868 13.4486 8.98676C13.3789 9.01483 13.3107 9.04617 13.2441 9.08075C13.1775 9.11533 13.1128 9.15302 13.05 9.19376C12.9872 9.23453 12.9266 9.27817 12.8682 9.32471C12.8098 9.37125 12.754 9.42047 12.7006 9.47232C12.6472 9.5242 12.5965 9.57849 12.5486 9.63522C12.5007 9.69193 12.4557 9.75076 12.4138 9.81177C12.3718 9.87277 12.333 9.93564 12.2975 10.0003C12.2618 10.065 12.2296 10.1313 12.2007 10.199C12.1718 10.2668 12.1464 10.3358 12.1245 10.406C12.1025 10.4762 12.0842 10.5473 12.0695 10.6193C12.0547 10.6912 12.0437 10.7637 12.0363 10.8367C12.0289 10.9097 12.0252 10.9829 12.0252 11.0562Z" fill="#CAE4FF" fill-opacity="1.000000" fill-rule="nonzero"/>
		<path id="path" d="M7.89981 18.457L5.09854 18.457C4.19778 18.457 3.4682 17.7483 3.4682 16.8733L3.4682 4.85074C3.4682 3.97574 4.19778 3.267 5.09854 3.267L16.7631 3.267C17.6638 3.267 18.4024 3.97574 18.4114 4.85074L18.4114 9.35699C18.4114 9.62823 18.1862 9.83826 17.916 9.83826C17.6368 9.83826 17.4206 9.61951 17.4206 9.35699L17.4206 4.85074C17.4206 4.50076 17.1324 4.22073 16.7721 4.22073L5.09854 4.22073C4.73825 4.20325 4.43198 4.46576 4.41397 4.80701L4.41397 16.8733C4.41397 17.2232 4.70221 17.5032 5.0625 17.5032L7.89981 17.5032C8.17905 17.5032 8.39523 17.722 8.39523 17.9845C8.39523 18.2557 8.17004 18.4658 7.89981 18.4658L7.89981 18.457Z" fill="#4D4D4D" fill-opacity="1.000000" fill-rule="nonzero"/>
		<path id="path" d="M14.7994 7.05576L6.69281 7.05576C6.4136 7.05576 6.19742 6.83701 6.19742 6.57452C6.19742 6.31201 6.42261 6.09326 6.69281 6.09326L14.7994 6.09326C15.0787 6.09326 15.2949 6.31201 15.2949 6.57452C15.2949 6.83701 15.0697 7.047 14.7994 7.05576ZM10.4579 9.95203L6.69281 9.95203C6.4136 9.95203 6.19742 9.73328 6.19742 9.47076C6.19742 9.20825 6.42261 8.9895 6.69281 8.9895L10.4579 8.9895C10.7371 8.9895 10.9533 9.20825 10.9533 9.47076C10.9533 9.73328 10.7371 9.95203 10.4579 9.95203ZM14.4842 14.2657C12.8358 14.2657 11.4937 12.9708 11.4937 11.3607C11.4937 9.75076 12.8268 8.46451 14.4842 8.46451C16.1325 8.46451 17.4746 9.75952 17.4746 11.3695C17.4656 12.9708 16.1325 14.2657 14.4842 14.2657ZM14.4842 9.35703C13.3853 9.35703 12.4936 10.2233 12.4936 11.2908C12.4936 12.3583 13.3853 13.2245 14.4842 13.2245C15.5831 13.2245 16.4748 12.3583 16.4748 11.2908C16.4748 10.7833 16.2676 10.302 15.9073 9.94327C15.5291 9.56702 15.0156 9.35703 14.4842 9.35703Z" fill="#4D4D4D" fill-opacity="1.000000" fill-rule="nonzero"/>
		<path id="path" d="M18.7897 18.457C18.5105 18.457 18.2943 18.2383 18.2943 17.9758C18.2943 15.9283 16.5829 14.2745 14.4752 14.2745C12.3765 14.2745 10.6741 15.9283 10.6651 17.9758C10.6651 18.247 10.4399 18.457 10.1696 18.457C9.89044 18.457 9.67426 18.2383 9.67426 17.9758C9.67426 15.4033 11.827 13.312 14.4752 13.312C17.1234 13.312 19.2761 15.4033 19.2761 17.9758C19.2761 18.2295 19.0599 18.4483 18.7897 18.457Z" fill="#4D4D4D" fill-opacity="1.000000" fill-rule="nonzero"/>
	</g>
</svg>
