<svg xmlns="http://www.w3.org/2000/svg" xmlns:xlink="http://www.w3.org/1999/xlink" width="22" height="22" viewBox="0 0 22 22">
  <defs>
    <style>
      .cls-1 {
        fill: #a4c4fe;
      }

      .cls-2 {
        clip-path: url(#clip-path);
      }

      .cls-3 {
        fill: #4d4d4d;
      }

      .cls-4 {
        fill: none;
      }
    </style>
    <clipPath id="clip-path">
      <rect id="矩形_8" data-name="矩形 8" class="cls-1" width="16.632" height="16.604"/>
    </clipPath>
  </defs>
  <g id="组_993" data-name="组 993" transform="translate(-18 -124)">
    <g id="组_16" data-name="组 16" transform="translate(227 373.921)">
      <g id="组_14" data-name="组 14" transform="translate(-206 -246.921)">
        <g id="组_13" data-name="组 13" class="cls-2" transform="translate(0 0)">
          <path id="路径_19" data-name="路径 19" class="cls-1" d="M-202.278-200.18h4.262v4.262h-4.262Zm-3.842-1.477h2.353v12.986h-2.353Zm0,0" transform="translate(206.117 202.786)"/>
        </g>
      </g>
      <path id="路径_20" data-name="路径 20" class="cls-1" d="M207.439,223.608a1.847,1.847,0,1,0,1.847-1.847,1.847,1.847,0,0,0-1.847,1.847Zm0,0" transform="translate(-403.128 -456.993)"/>
      <g id="组_15" data-name="组 15" transform="translate(-204.801 -246.902)">
        <path id="路径_21" data-name="路径 21" class="cls-3" d="M-153.05-233.223h-3.721V-245h9.223v7.638a.579.579,0,0,0,.579.579.579.579,0,0,0,.579-.579v-8.8h-11.538v14.1h4.879a.579.579,0,0,0,.579-.579A.579.579,0,0,0-153.05-233.223Z" transform="translate(157.929 246.161)"/>
        <path id="路径_22" data-name="路径 22" class="cls-3" d="M-66.591,78.769a.576.576,0,0,0-.576.576.576.576,0,0,0,.576.576.576.576,0,0,0,.576-.576A.576.576,0,0,0-66.591,78.769Z" transform="translate(69.431 -70.665)"/>
        <path id="路径_23" data-name="路径 23" class="cls-3" d="M5,78.679H2.49a.579.579,0,0,0,0,1.157H5a.579.579,0,0,0,0-1.157Z" transform="translate(2.075 -70.578)"/>
        <path id="路径_24" data-name="路径 24" class="cls-3" d="M5,157.679H2.49a.579.579,0,1,0,0,1.157H5a.579.579,0,1,0,0-1.157Z" transform="translate(2.075 -147.607)"/>
        <path id="路径_25" data-name="路径 25" class="cls-3" d="M-66.591,157.769a.576.576,0,0,0-.576.576.576.576,0,0,0,.576.576.576.576,0,0,0,.576-.576A.576.576,0,0,0-66.591,157.769Z" transform="translate(69.431 -147.695)"/>
        <path id="路径_26" data-name="路径 26" class="cls-3" d="M-63.316-158.778h-5.077v5.077h5.077Zm-1.158,3.92h-2.761v-2.762h2.761Z" transform="translate(70.626 160.957)"/>
        <path id="路径_27" data-name="路径 27" class="cls-3" d="M111.153,175.616c-3.519-3.475-6.692-1.17-7.892-.018a1.691,1.691,0,0,0,0,2.444,6.045,6.045,0,0,0,4,1.822,5.508,5.508,0,0,0,3.894-1.84,1.693,1.693,0,0,0,0-2.409Zm-3.955,2.135a.931.931,0,1,1,.931-.931A.931.931,0,0,1,107.2,177.751Zm-3.3-.93a.533.533,0,0,1,.166-.387,5.812,5.812,0,0,1,1.8-1.22c-.049.041-.1.084-.142.129a2.088,2.088,0,0,0,.143,3.084,5.814,5.814,0,0,1-1.8-1.22A.533.533,0,0,1,103.9,176.821Zm6.443.38a5.459,5.459,0,0,1-1.857,1.263,2.086,2.086,0,0,0,.007-3.285,5.464,5.464,0,0,1,1.85,1.26.536.536,0,0,1,0,.761Z" transform="translate(-96.238 -163.303)"/>
      </g>
    </g>
    <rect id="矩形_10" data-name="矩形 10" class="cls-4" width="22" height="22" transform="translate(18 124)"/>
  </g>
</svg>
